<svg width="671" height="671" viewBox="0 0 671 671" xmlns="http://www.w3.org/2000/svg"><defs><linearGradient x1="0%" y1="50%" x2="100%" y2="50%" id="a"><stop stop-color="#08FCFE" offset="0%"/><stop stop-color="#F0A0FF" offset="100%"/></linearGradient></defs><path d="M670.365,0 L670.365,56.8119 L568.1034,56.8119 L568.1034,363.646 L511.2914,363.646 L511.2914,56.8119 L409.028,56.8119 L409.028,0 L670.365,0 Z M309.743,0.001 L258.382,0.001 C228.637922,0.001 204.525387,24.1129221 204.525,53.857 L204.525,290.0039 C204.525,294.467494 202.751844,298.74827 199.595607,301.904507 C196.43937,305.060744 192.158594,306.8339 187.695,306.8339 L175.905,306.8339 C166.609863,306.833955 159.074497,299.299037 159.074,290.0039 L159.074,53.857 C159.074,39.5733275 153.399765,25.8746916 143.299589,15.7747036 C133.199414,5.67471569 119.500673,0.001 105.217,0.001 L53.857,0.001 C24.1129221,0.001 -1.70530257e-13,24.1129221 -1.70530257e-13,53.857 L-1.70530257e-13,363.6 L56.812,363.6 L56.812,73.6419 C56.812,64.3469477 64.3470477,56.8119 73.642,56.8119 L85.432,56.8119 C94.727137,56.8118448 102.262503,64.346763 102.263,73.6419 L102.263,309.789 C102.262973,324.072773 107.937168,337.771527 118.037321,347.871679 C128.137473,357.971832 141.836227,363.646 156.12,363.646 L207.48,363.646 C237.224263,363.646 261.336669,339.533263 261.337,309.789 L261.337,74.0539 C261.336945,64.758763 268.871863,57.223397 278.167,57.2229 L289.958,57.2229 C299.253137,57.223397 306.788055,64.758763 306.788,74.0539 L306.788,363.6 L363.599,363.6 L363.599,53.857 C363.599,39.5735538 357.925027,25.8750992 347.825143,15.77514 C337.725259,5.67518084 324.026846,0.001 309.7434,0.001 L309.743,0.001 Z" transform="translate(0 154)" fill="url(#a)"/></svg>